<svg xmlns="http://www.w3.org/2000/svg" version="1.1" xmlns:xlink="http://www.w3.org/1999/xlink" width="512" height="512" x="0" y="0" viewBox="0 0 512 512" style="enable-background:new 0 0 512 512" xml:space="preserve" class=""><g><g fill="#ffce45"><path fill-rule="evenodd" d="m267.054 20.496 91.938 91.938c-5.63-5.439-13.285-8.794-21.7-8.794h-61.444V42.196c0-8.415-3.355-16.07-8.794-21.7z" fill="#7cb798" opacity="1" data-original="#ffce45"></path><rect width="125.512" height="47.814" x="59.88" y="57.331" rx="5.976" fill="#7cb798" opacity="1" data-original="#ffce45"></rect><path fill-rule="evenodd" d="M401.715 364.501c9.613-16.16 15.135-35.039 15.135-55.207 0-59.731-48.421-108.153-108.152-108.153s-108.152 48.422-108.152 108.152 48.421 108.152 108.152 108.152c20.169 0 39.047-5.521 55.208-15.135 7.385-4.392 16.507-3.252 22.583 2.823l11.209 11.209c.175-.202.358-.4.55-.592l16.909-16.909c.192-.192.39-.375.592-.55l-11.209-11.209c-6.076-6.076-7.216-15.198-2.823-22.583zm-93.019 21.292c-42.25 0-76.5-34.25-76.5-76.5s34.25-76.5 76.5-76.5 76.5 34.25 76.5 76.5-34.25 76.5-76.5 76.5z" fill="#7cb798" opacity="1" data-original="#ffce45"></path></g><path fill="#282828" fill-rule="evenodd" d="M196.188 385.743a6.994 6.994 0 0 1-6.998 7.001c-45.98 0-83.4-37.411-83.4-83.4s37.42-83.4 83.4-83.4c3.868 0 6.998 3.131 6.998 7.001s-3.13 7.001-6.998 7.001c-38.259 0-69.4 31.129-69.4 69.399s31.141 69.401 69.4 69.401a6.994 6.994 0 0 1 6.998 6.999zM52.87 142.135a7.001 7.001 0 0 1 6.998-7.001H320.23c3.868 0 6.998 3.129 6.998 7.001s-3.13 6.999-6.998 6.999H59.867c-3.858 0-6.998-3.14-6.998-6.999zm267.36 36.698H59.867a7 7 0 0 1 0-14H320.23c3.868 0 6.998 3.13 6.998 7.001s-3.13 6.999-6.998 6.999zM66.865 64.334h111.512v33.81H66.865zm-1.018 47.81h113.562c7.147 0 12.968-5.819 12.968-12.969V63.314c0-7.16-5.821-12.98-12.968-12.98H65.848c-7.162 0-12.978 5.819-12.978 12.98v35.86c0 7.149 5.816 12.969 12.978 12.969zm83.381 297.911a6.997 6.997 0 0 1-6.13 3.61 6.975 6.975 0 0 1-3.381-.871l-10.128-5.61c-3.39-1.869-4.611-6.13-2.739-9.519 1.876-3.38 6.14-4.601 9.515-2.73l10.133 5.61c3.381 1.869 4.601 6.128 2.73 9.509zm-54.71-164.571c-2.301 3.101-1.654 7.49 1.447 9.791a7.01 7.01 0 0 0 4.172 1.381 6.985 6.985 0 0 0 5.623-2.832l6.897-9.31c2.301-3.099 1.649-7.488-1.447-9.789-3.111-2.3-7.495-1.65-9.79 1.461l-6.901 9.299zm144.519 161.18a7.002 7.002 0 0 1-4.22 8.951l-10.89 3.93a7.078 7.078 0 0 1-2.378.411 7 7 0 0 1-2.373-13.581l10.899-3.93c3.631-1.309 7.639.58 8.961 4.22zm-146.178-70.25c.815 3.781-1.582 7.511-5.353 8.33a7 7 0 0 1-8.329-5.36l-2.45-11.32a6.996 6.996 0 0 1 5.348-8.319 7.005 7.005 0 0 1 8.334 5.359l2.45 11.309zm101.64 81.65c-.289 3.661-3.362 6.441-6.969 6.441-.193 0-.381-.009-.574-.021l-11.541-.928c-3.849-.302-6.728-3.681-6.419-7.53a7 7 0 0 1 7.543-6.42l11.536.919a7.004 7.004 0 0 1 6.424 7.539zm-81.751-43.789-6.911-9.289a6.993 6.993 0 0 0-9.79-1.441 7 7 0 0 0-1.442 9.791l6.901 9.301a7.028 7.028 0 0 0 5.628 2.818 6.989 6.989 0 0 0 4.172-1.379 7.005 7.005 0 0 0 1.442-9.8zm126.149-162.311a7.001 7.001 0 0 1-6.593 4.64c-.776 0-1.577-.14-2.358-.42l-10.9-3.909c-3.641-1.3-5.527-5.311-4.23-8.95a7.004 7.004 0 0 1 8.961-4.22l10.899 3.911a6.992 6.992 0 0 1 4.22 8.949zm-162.2 78.811 2.44-11.32c.81-3.779 4.538-6.191 8.319-5.369a7.006 7.006 0 0 1 5.368 8.319l-2.44 11.32a7.007 7.007 0 0 1-6.839 5.529 6.76 6.76 0 0 1-1.481-.16c-3.781-.81-6.178-4.54-5.368-8.319zm117.651-90.159c.318 3.858-2.551 7.228-6.414 7.549l-11.536.94c-.193.021-.381.021-.574.021a7.001 7.001 0 0 1-6.969-6.43 6.99 6.99 0 0 1 6.4-7.541l11.551-.941a6.993 6.993 0 0 1 7.543 6.402zm-45.262 8.068a7 7 0 0 1-2.72 9.522l-10.123 5.619a6.931 6.931 0 0 1-3.386.88 6.99 6.99 0 0 1-6.13-3.6 7.005 7.005 0 0 1 2.72-9.519l10.128-5.621a6.99 6.99 0 0 1 9.511 2.72zm339.555 280.579c-6.318 6.332-16.638 6.332-22.956 0l-62.614-62.618a4.226 4.226 0 0 1 0-5.961l17.01-17.01c.82-.819 1.9-1.23 2.976-1.23s2.151.411 2.971 1.23l62.614 62.621c3.087 3.05 4.726 7.128 4.726 11.49s-1.639 8.429-4.726 11.478zm-128.334-93.01c10.2-6.07 22.701-4.51 31.093 3.891l6.207 6.2 8.131-8.129-6.197-6.211c-8.401-8.389-9.959-20.889-3.892-31.09 9.25-15.54 14.131-33.379 14.131-51.57 0-55.72-45.32-101.05-101.042-101.05s-101.047 45.33-101.047 101.05 45.329 101.041 101.047 101.041c18.192 0 36.031-4.881 51.57-14.131zM18.599 459.684h342.909v-48.1a115.05 115.05 0 0 1-52.771 12.799c-63.439 0-115.047-51.6-115.047-115.04s51.608-115.049 115.047-115.049c19.011 0 36.952 4.641 52.771 12.841v-74.061c0-5.559-2.238-10.529-6.651-14.789-.029-.03-.058-.06-.087-.081l-.699-.71c-4.562-4.399-10.533-6.819-16.822-6.819h-61.432a6.994 6.994 0 0 1-6.998-7.001V42.243c0-6.29-2.421-12.26-6.81-16.81l-.709-.709a.8.8 0 0 1-.092-.092c-4.321-4.471-9.149-6.641-14.777-6.641H18.599zm264.22-413.439 50.427 50.429h-50.427zm215.756 410.15-62.648-62.62c-5.141-5.151-12.621-6.541-19.06-4.229l-7.441-7.442c-3.776-3.779-4.49-9.419-1.746-14.029 10.538-17.71 16.098-38.021 16.098-58.73 0-38.559-19.069-72.75-48.271-93.639v-82.631c0-9.35-3.757-17.929-10.88-24.82L271.24 14.867c-6.892-7.114-15.471-10.871-24.808-10.871H11.597a6.953 6.953 0 0 0-4.948 2.05 6.938 6.938 0 0 0-2.05 4.948v455.691c0 1.859.728 3.64 2.05 4.949a6.962 6.962 0 0 0 4.948 2.049H368.51a7 7 0 0 0 6.998-6.998v-59.851c2.19.42 4.278 1.501 5.99 3.2l7.442 7.44c-2.31 6.441-.921 13.92 4.23 19.061l62.628 62.63c5.884 5.889 13.649 8.839 21.365 8.839 7.765 0 15.481-2.95 21.365-8.839 5.739-5.701 8.874-13.291 8.874-21.38s-3.135-15.691-8.826-21.39zm-189.839-77.651a69.012 69.012 0 0 1-23.617-4.15c13.137-19.089 20.308-41.93 20.308-65.251s-7.171-46.159-20.318-65.251a69.106 69.106 0 0 1 23.627-4.148c38.274 0 69.4 31.129 69.4 69.399s-31.126 69.401-69.4 69.401zm-36.388-128.461c1.799 2.511 3.492 5.1 5.05 7.75l-28.7 16.571a69.862 69.862 0 0 1 23.651-24.321zm-32.94 56.44c.14-3.87.588-7.67 1.35-11.36l42.908-24.779a99.802 99.802 0 0 1 3.178 8.749l-47.437 27.39zm1.148 15.51 49.612-28.649c.521 3.299.878 6.629 1.071 9.97l-48.281 27.88a70.336 70.336 0 0 1-2.402-9.201zm41.5 29.541a100.697 100.697 0 0 1-9.708 16.629 70.916 70.916 0 0 1-8.44-6.139zm6.853-20.111-34.97 20.19a68.807 68.807 0 0 1-5.151-7.62l42.05-24.28c-.41 3.941-1.061 7.85-1.929 11.71zm19.826-105.72c45.98 0 83.4 37.411 83.4 83.4s-37.42 83.4-83.4 83.4-83.4-37.411-83.4-83.4 37.41-83.4 83.4-83.4z" opacity="1" data-original="#282828" class=""></path></g></svg>