<svg xmlns="http://www.w3.org/2000/svg" version="1.1" xmlns:xlink="http://www.w3.org/1999/xlink" width="512" height="512" x="0" y="0" viewBox="0 0 72 72" style="enable-background:new 0 0 512 512" xml:space="preserve" class=""><g><g data-name="Layer 23"><path fill="#b2c7e9" d="M43 4h26v27L34 66H10l-3-3V40z" opacity="1" data-original="#fbdace" class=""></path><g fill="#faa283"><circle cx="14" cy="50" r="2" fill="#f1f1f1" opacity="1" data-original="#faa283" class=""></circle><circle cx="22" cy="43" r="2" fill="#f1f1f1" opacity="1" data-original="#faa283" class=""></circle><circle cx="26" cy="30" r="2" fill="#f1f1f1" opacity="1" data-original="#faa283" class=""></circle><circle cx="38" cy="26" r="2" fill="#f1f1f1" opacity="1" data-original="#faa283" class=""></circle><circle cx="46" cy="13" r="2" fill="#f1f1f1" opacity="1" data-original="#faa283" class=""></circle><circle cx="59" cy="26" r="2" fill="#f1f1f1" opacity="1" data-original="#faa283" class=""></circle><circle cx="51" cy="32" r="2" fill="#f1f1f1" opacity="1" data-original="#faa283" class=""></circle><circle cx="52" cy="41" r="2" fill="#f1f1f1" opacity="1" data-original="#faa283" class=""></circle><circle cx="41" cy="40" r="2" fill="#f1f1f1" opacity="1" data-original="#faa283" class=""></circle><circle cx="33" cy="50" r="2" fill="#f1f1f1" opacity="1" data-original="#faa283" class=""></circle><circle cx="25" cy="60" r="2" fill="#f1f1f1" opacity="1" data-original="#faa283" class=""></circle></g></g><g fill="#440a29" data-name="Layer 25"><path d="M68 65H11a3.003 3.003 0 0 1-3-3V4a1 1 0 0 0-2 0v11H4a1 1 0 0 0 0 2h2v10H4a1 1 0 0 0 0 2h2v10H4a1 1 0 0 0 0 2h2v10H4a1 1 0 0 0 0 2h2v9a5.006 5.006 0 0 0 5 5h8v1a1 1 0 0 0 2 0v-1h10v1a1 1 0 0 0 2 0v-1h10v1a1 1 0 0 0 2 0v-1h10v1a1 1 0 0 0 2 0v-1h11a1 1 0 0 0 0-2z" fill="#440a29" opacity="1" data-original="#440a29" class=""></path><path d="m67.293 4.293-57 57a1 1 0 1 0 1.414 1.414l57-57a1 1 0 1 0-1.414-1.414zM67.293 31.293l-30 30a1 1 0 1 0 1.414 1.414l30-30a1 1 0 1 0-1.414-1.414zM43.707 3.293a1 1 0 0 0-1.414 0l-32 32a1 1 0 1 0 1.414 1.414l32-32a1 1 0 0 0 0-1.414zM28 60a3 3 0 1 0-3 3 3.003 3.003 0 0 0 3-3zm-4 0a1 1 0 1 1 1 1 1 1 0 0 1-1-1zM19 43a3 3 0 1 0 3-3 3.003 3.003 0 0 0-3 3zm4 0a1 1 0 1 1-1-1 1 1 0 0 1 1 1zM36 50a3 3 0 1 0-3 3 3.003 3.003 0 0 0 3-3zm-4 0a1 1 0 1 1 1 1 1 1 0 0 1-1-1zM11 50a3 3 0 1 0 3-3 3.003 3.003 0 0 0-3 3zm4 0a1 1 0 1 1-1-1 1 1 0 0 1 1 1zM29 30a3 3 0 1 0-3 3 3.003 3.003 0 0 0 3-3zm-4 0a1 1 0 1 1 1 1 1 1 0 0 1-1-1zM44 40a3 3 0 1 0-3 3 3.003 3.003 0 0 0 3-3zm-4 0a1 1 0 1 1 1 1 1 1 0 0 1-1-1zM35 26a3 3 0 1 0 3-3 3.003 3.003 0 0 0-3 3zm4 0a1 1 0 1 1-1-1 1 1 0 0 1 1 1zM51 29a3 3 0 1 0 3 3 3.003 3.003 0 0 0-3-3zm0 4a1 1 0 1 1 1-1 1 1 0 0 1-1 1zM62 26a3 3 0 1 0-3 3 3.003 3.003 0 0 0 3-3zm-4 0a1 1 0 1 1 1 1 1 1 0 0 1-1-1zM49 41a3 3 0 1 0 3-3 3.003 3.003 0 0 0-3 3zm4 0a1 1 0 1 1-1-1 1 1 0 0 1 1 1zM46 16a3 3 0 1 0-3-3 3.003 3.003 0 0 0 3 3zm0-4a1 1 0 1 1-1 1 1 1 0 0 1 1-1z" fill="#440a29" opacity="1" data-original="#440a29" class=""></path></g></g></svg>