<svg xmlns="http://www.w3.org/2000/svg" version="1.1" xmlns:xlink="http://www.w3.org/1999/xlink" width="512" height="512" x="0" y="0" viewBox="0 0 512 512" style="enable-background:new 0 0 512 512" xml:space="preserve" class=""><g><g fill-rule="evenodd" clip-rule="evenodd"><g fill="#ffc144"><path d="M314.089 132.798c7.81 7.811 20.474 7.811 28.284 0s7.81-20.474 0-28.284c-7.811-7.811-20.474-7.811-28.284 0-7.811 7.811-7.811 20.474 0 28.284zM363.589 171.264c-7.81 7.811-7.81 20.474 0 28.284 7.81 7.811 20.474 7.811 28.284 0s7.81-20.473 0-28.284c-7.811-7.81-20.474-7.81-28.284 0zM416.302 288.403c-7.811-7.811-20.474-7.811-28.284 0-7.811 7.81-7.811 20.474 0 28.284 7.811 7.811 20.474 7.811 28.284 0 7.811-7.81 7.811-20.474 0-28.284zM341.299 353.738c7.81-7.81 7.81-20.474 0-28.284-7.811-7.81-20.474-7.81-28.284 0-7.811 7.81-7.811 20.474 0 28.284 7.81 7.811 20.473 7.811 28.284 0zM330.144 410.841c-7.811-7.811-20.474-7.811-28.284 0-7.81 7.81-7.81 20.474 0 28.284 7.811 7.81 20.474 7.81 28.284 0 7.81-7.811 7.81-20.474 0-28.284z" fill="#ff9c9b" opacity="1" data-original="#ffc144" class=""></path></g><path fill="#ffffff" d="M301.859 410.841c7.811-7.811 20.474-7.811 28.284 0 7.81 7.81 7.81 20.474 0 28.284-7.811 7.81-20.474 7.81-28.284 0-7.81-7.811-7.81-20.474 0-28.284zM256 54.8v388.6c0 32.364 26.236 58.6 58.6 58.6 28.42 0 52.112-20.232 57.465-47.079 31.946-5.194 56.335-32.907 56.335-66.321 0-4.262-.402-8.431-1.16-12.472 28.589-11.569 48.76-39.591 48.76-72.329 0-30.816-17.872-57.454-43.815-70.125 13.871-12.31 22.615-30.27 22.615-50.274 0-26.997-15.922-50.27-38.885-60.956A51.512 51.512 0 0 0 418.8 105.4c0-28.498-23.102-51.6-51.6-51.6a51.391 51.391 0 0 0-21.6 4.729V54.8c0-24.64-20.16-44.8-44.8-44.8S256 30.16 256 54.8zm85.299 270.654c7.81 7.81 7.81 20.474 0 28.284-7.811 7.811-20.474 7.811-28.284 0-7.811-7.81-7.811-20.474 0-28.284 7.81-7.81 20.473-7.81 28.284 0zm22.29-125.906c-7.81-7.811-7.81-20.473 0-28.284s20.474-7.811 28.284 0 7.81 20.474 0 28.284c-7.811 7.811-20.474 7.811-28.284 0zm-21.216-66.75c-7.811 7.811-20.474 7.811-28.284 0s-7.81-20.474 0-28.284c7.81-7.811 20.474-7.811 28.284 0s7.81 20.474 0 28.284zm73.929 183.889c-7.811 7.811-20.474 7.811-28.284 0-7.811-7.81-7.811-20.474 0-28.284 7.811-7.811 20.474-7.811 28.284 0 7.811 7.81 7.811 20.474 0 28.284z" opacity="1" data-original="#ffffff" class=""></path><path fill="#ff9c9b" d="M256 443.4V54.8c0-24.64-20.16-44.8-44.8-44.8s-44.8 20.16-44.8 44.8v3.728a51.406 51.406 0 0 0-21.6-4.729c-28.498 0-51.6 23.102-51.6 51.6a51.537 51.537 0 0 0 2.885 17.044C73.122 133.13 57.2 156.403 57.2 183.4c0 20.004 8.744 37.964 22.615 50.274C53.873 246.345 36 272.983 36 303.799c0 32.738 20.171 60.759 48.76 72.329A67.612 67.612 0 0 0 83.6 388.6c0 33.414 24.389 61.127 56.335 66.321C145.288 481.767 168.98 502 197.4 502c32.364 0 58.6-26.236 58.6-58.6z" opacity="1" data-original="#ff9c9b" class=""></path></g><path d="M486 303.799c0-29.416-14.255-56.127-37.938-72.41a77.267 77.267 0 0 0 16.738-47.988c0-27.058-14.346-52.13-37.169-66.014A61.758 61.758 0 0 0 428.8 105.4c0-33.966-27.633-61.6-61.6-61.6-4.234 0-8.398.421-12.467 1.259C350.124 19.472 327.694 0 300.8 0c-18.491 0-34.871 9.204-44.8 23.272C246.071 9.204 229.691 0 211.2 0c-26.895 0-49.327 19.477-53.934 45.065a61.41 61.41 0 0 0-5.28-.849 9.998 9.998 0 0 0-11.09 8.776c-.639 5.485 3.291 10.45 8.776 11.089a41.252 41.252 0 0 1 12.417 3.473c.042.02.08.044.122.064a41.381 41.381 0 0 1 18.615 16.98 9.998 9.998 0 0 0 13.661 3.66c4.783-2.761 6.422-8.877 3.661-13.66-5.284-9.151-12.702-16.666-21.669-22.027C177.632 34.419 192.76 20 211.2 20c19.189 0 34.8 15.611 34.8 34.8v204.135c-16.822-2.164-32.377-9.753-44.567-21.943-3.905-3.903-10.237-3.904-14.142 0-3.906 3.905-3.906 10.237 0 14.143 15.975 15.975 36.533 25.699 58.709 27.951V443.4c0 26.798-21.802 48.6-48.6 48.6-18.48 0-34.993-10.508-43.174-26.286a77.204 77.204 0 0 0 16.555-2.545c5.334-1.43 8.5-6.914 7.07-12.248-1.431-5.335-6.914-8.503-12.249-7.07a57.439 57.439 0 0 1-24.049 1.197l-.077-.009c-27.481-4.499-47.48-27.819-47.859-55.637a87.731 87.731 0 0 0 20.382 2.398 88.045 88.045 0 0 0 22.775-2.999c5.335-1.429 8.501-6.912 7.072-12.246-1.429-5.335-6.91-8.503-12.247-7.072a68.092 68.092 0 0 1-17.601 2.317 67.703 67.703 0 0 1-25.487-4.957c-.067-.027-.136-.045-.203-.07C62.602 356.274 46 331.582 46 303.799c0-26.136 14.567-49.509 38.028-61.05.058-.027.117-.045.175-.073a68.132 68.132 0 0 1 12.196-4.56c5.335-1.429 8.501-6.911 7.073-12.246s-6.914-8.504-12.247-7.072a88.176 88.176 0 0 0-9.18 3.031A57.254 57.254 0 0 1 67.2 183.4c0-18.795 9.347-36.296 24.451-46.889a61.61 61.61 0 0 0 22.35 22.235 9.995 9.995 0 0 0 13.66-3.66c2.762-4.783 1.123-10.898-3.66-13.66a41.62 41.62 0 0 1-18.466-22.288c-.014-.041-.034-.078-.048-.119a41.45 41.45 0 0 1-2.003-8.745c-.64-5.485-5.608-9.407-11.091-8.773-5.486.64-9.414 5.605-8.774 11.092.188 1.605.439 3.206.753 4.793C61.548 131.27 47.2 156.343 47.2 183.4a77.258 77.258 0 0 0 16.738 47.988C40.255 247.672 26 274.383 26 303.799c0 33.411 18.548 63.37 47.87 78.341a77.192 77.192 0 0 0 18.33 56.718c10.396 12.109 24.264 20.68 39.575 24.57C140.466 491.938 167.064 512 197.4 512c24.787 0 46.544-13.213 58.6-32.966C268.056 498.787 289.814 512 314.6 512c30.337 0 56.935-20.062 65.625-48.572 15.311-3.891 29.179-12.461 39.575-24.57a77.192 77.192 0 0 0 18.33-56.718c29.321-14.971 47.87-44.93 47.87-78.341zm-62.512 63.059a9.999 9.999 0 0 0-6.077 11.113c.656 3.497.989 7.073.989 10.629 0 28.193-20.162 51.934-47.939 56.45a10 10 0 0 0-8.203 7.915C357.748 475.584 337.705 492 314.6 492c-26.798 0-48.6-21.802-48.6-48.6v-41.368h12.909l10.024 10.025c-5.311 11.149-3.363 24.921 5.855 34.139 5.849 5.849 13.531 8.772 21.213 8.772s15.365-2.924 21.213-8.772c11.697-11.697 11.697-30.729 0-42.427-9.218-9.218-22.99-11.166-34.139-5.855l-12.953-12.954a10.001 10.001 0 0 0-7.071-2.929H266v-32.436h32.876a29.825 29.825 0 0 0 7.067 11.213c5.849 5.849 13.531 8.772 21.213 8.772s15.365-2.925 21.213-8.772c11.696-11.697 11.696-30.729 0-42.427-11.697-11.696-30.73-11.696-42.427 0a29.809 29.809 0 0 0-7.067 11.214H266v-50.002h99.068l10.011 10.012a29.892 29.892 0 0 0-2.919 12.938c0 8.014 3.121 15.548 8.787 21.214 5.849 5.848 13.531 8.771 21.213 8.771s15.365-2.924 21.214-8.771c5.666-5.667 8.786-13.2 8.786-21.214s-3.12-15.547-8.786-21.213c-9.218-9.218-22.99-11.165-34.139-5.855l-12.953-12.954a10.001 10.001 0 0 0-7.071-2.929H266v-31.238h78.781c2.652 0 5.196-1.054 7.071-2.929l12.94-12.94a29.897 29.897 0 0 0 12.939 2.92c8.014 0 15.547-3.121 21.213-8.787s8.787-13.2 8.787-21.214-3.121-15.547-8.787-21.213-13.2-8.787-21.213-8.787-15.547 3.121-21.213 8.787c-5.667 5.666-8.787 13.199-8.787 21.213 0 4.553 1.01 8.95 2.919 12.939l-10.011 10.012H266v-46.75h29.281c2.652 0 5.196-1.054 7.071-2.929l12.94-12.941a29.892 29.892 0 0 0 12.938 2.919c8.014 0 15.547-3.121 21.213-8.787 5.667-5.666 8.787-13.199 8.787-21.213s-3.121-15.548-8.787-21.214-13.2-8.787-21.213-8.787-15.547 3.121-21.213 8.787-8.787 13.2-8.787 21.214c0 4.553 1.01 8.95 2.919 12.938l-10.011 10.012H266V54.8c0-19.188 15.611-34.8 34.8-34.8s34.8 15.611 34.8 34.8v3.729a10.001 10.001 0 0 0 14.191 9.079c5.474-2.526 11.332-3.808 17.409-3.808 22.938 0 41.6 18.661 41.6 41.6 0 4.71-.782 9.334-2.324 13.743a10 10 0 0 0 5.22 12.368c20.11 9.357 33.104 29.726 33.104 51.89a57.265 57.265 0 0 1-19.253 42.794 10 10 0 0 0 2.249 16.465C451.361 254.17 466 277.598 466 303.8c0 27.855-16.687 52.607-42.512 63.058zm-107.487 48.129a9.97 9.97 0 0 1 7.071 2.925c3.899 3.898 3.899 10.243 0 14.142-3.898 3.898-10.243 3.898-14.142 0s-3.899-10.243 0-14.142a9.974 9.974 0 0 1 7.071-2.925zm4.084-82.462c3.9-3.9 10.244-3.898 14.143 0s3.899 10.243 0 14.142c-3.898 3.899-10.244 3.898-14.142 0-3.899-3.898-3.899-10.243-.001-14.142zm75.004-37.05c1.949-1.95 4.51-2.925 7.071-2.925s5.122.976 7.072 2.925a9.935 9.935 0 0 1 2.928 7.07 9.934 9.934 0 0 1-2.928 7.071c-3.898 3.897-10.243 3.899-14.143 0a9.932 9.932 0 0 1-2.929-7.071 9.93 9.93 0 0 1 2.929-7.07zM370.66 192.478a9.932 9.932 0 0 1-2.929-7.071 9.93 9.93 0 0 1 2.929-7.07c1.889-1.889 4.4-2.929 7.071-2.929s5.182 1.04 7.071 2.929 2.929 4.399 2.929 7.07a9.93 9.93 0 0 1-2.929 7.071 9.932 9.932 0 0 1-7.071 2.929 9.942 9.942 0 0 1-7.071-2.929zm-49.5-66.751c-.001 0-.001 0 0 0a9.932 9.932 0 0 1-2.929-7.07 9.93 9.93 0 0 1 2.929-7.071c1.889-1.889 4.4-2.929 7.071-2.929s5.182 1.04 7.071 2.929 2.929 4.399 2.929 7.071a9.93 9.93 0 0 1-2.929 7.07 9.932 9.932 0 0 1-7.071 2.929 9.942 9.942 0 0 1-7.071-2.929z" fill="#000000" opacity="1" data-original="#000000" class=""></path><path d="M137.596 225.796c0 13.959-9.417 26.23-22.899 29.844-5.334 1.43-8.5 6.913-7.071 12.248 1.197 4.468 5.237 7.414 9.653 7.414.856 0 1.728-.111 2.595-.344 22.21-5.952 37.723-26.168 37.723-49.162a50.961 50.961 0 0 0-6.819-25.448c-2.762-4.783-8.877-6.423-13.66-3.66-4.783 2.762-6.422 8.877-3.66 13.66a30.955 30.955 0 0 1 4.138 15.448zM189.197 396.082c.868.232 1.739.344 2.596.344 4.414 0 8.455-2.946 9.652-7.413a50.894 50.894 0 0 0 1.735-13.174c0-28.064-22.832-50.896-50.896-50.896-5.523 0-10 4.478-10 10s4.477 10 10 10c17.036 0 30.896 13.86 30.896 30.896 0 2.7-.354 5.39-1.053 7.994-1.429 5.335 1.736 10.818 7.07 12.249zM227.46 132.467c3.905-3.906 3.905-10.237 0-14.143-3.905-3.904-10.237-3.904-14.142 0-5.835 5.836-13.594 9.05-21.847 9.05s-16.011-3.214-21.847-9.05c-3.904-3.903-10.237-3.903-14.142 0-3.905 3.905-3.906 10.236 0 14.143 9.613 9.613 22.394 14.907 35.989 14.907s26.376-5.294 35.989-14.907zM108.314 78.913c5.523 0 10-4.478 10-10s-4.477-10-10-10h-.007c-5.523 0-9.996 4.478-9.996 10s4.48 10 10.003 10z" fill="#000000" opacity="1" data-original="#000000" class=""></path></g></svg>