<svg xmlns="http://www.w3.org/2000/svg" xmlns:xlink="http://www.w3.org/1999/xlink" width="1920" zoomAndPan="magnify" viewBox="0 0 1440 809.999993" height="1080" preserveAspectRatio="xMidYMid meet" version="1.0"><defs><g/></defs><g fill="#ffffff" fill-opacity="1"><g transform="translate(25.500004, 594.963478)"><g><path d="M 128.921875 -73.046875 L 252.875 -73.046875 L 252.875 0 L 34.3125 0 L 34.3125 -388.453125 L 128.921875 -388.453125 Z M 128.921875 -73.046875 "/></g></g></g><g fill="#ffffff" fill-opacity="1"><g transform="translate(289.443425, 594.963478)"><g><path d="M 81.890625 -340.859375 C 65.296875 -340.859375 51.738281 -345.742188 41.21875 -355.515625 C 30.707031 -365.296875 25.453125 -377.378906 25.453125 -391.765625 C 25.453125 -406.523438 30.707031 -418.789062 41.21875 -428.5625 C 51.738281 -438.34375 65.296875 -443.234375 81.890625 -443.234375 C 98.117188 -443.234375 111.488281 -438.34375 122 -428.5625 C 132.519531 -418.789062 137.78125 -406.523438 137.78125 -391.765625 C 137.78125 -377.378906 132.519531 -365.296875 122 -355.515625 C 111.488281 -345.742188 98.117188 -340.859375 81.890625 -340.859375 Z M 128.921875 -308.765625 L 128.921875 0 L 34.3125 0 L 34.3125 -308.765625 Z M 128.921875 -308.765625 "/></g></g></g><g fill="#ffffff" fill-opacity="1"><g transform="translate(452.678845, 594.963478)"><g><path d="M 15.5 -154.9375 C 15.5 -186.664062 21.492188 -214.515625 33.484375 -238.484375 C 45.472656 -262.460938 61.796875 -280.90625 82.453125 -293.8125 C 103.109375 -306.726562 126.160156 -313.1875 151.609375 -313.1875 C 173.378906 -313.1875 192.472656 -308.757812 208.890625 -299.90625 C 225.304688 -291.050781 237.941406 -279.429688 246.796875 -265.046875 L 246.796875 -308.765625 L 341.40625 -308.765625 L 341.40625 0 L 246.796875 0 L 246.796875 -43.71875 C 237.566406 -29.332031 224.742188 -17.710938 208.328125 -8.859375 C 191.910156 -0.00390625 172.820312 4.421875 151.0625 4.421875 C 125.976562 4.421875 103.109375 -2.125 82.453125 -15.21875 C 61.796875 -28.3125 45.472656 -46.9375 33.484375 -71.09375 C 21.492188 -95.257812 15.5 -123.207031 15.5 -154.9375 Z M 246.796875 -154.390625 C 246.796875 -177.992188 240.242188 -196.617188 227.140625 -210.265625 C 214.046875 -223.921875 198.09375 -230.75 179.28125 -230.75 C 160.46875 -230.75 144.515625 -224.015625 131.421875 -210.546875 C 118.328125 -197.078125 111.78125 -178.539062 111.78125 -154.9375 C 111.78125 -131.320312 118.328125 -112.597656 131.421875 -98.765625 C 144.515625 -84.929688 160.46875 -78.015625 179.28125 -78.015625 C 198.09375 -78.015625 214.046875 -84.835938 227.140625 -98.484375 C 240.242188 -112.140625 246.796875 -130.773438 246.796875 -154.390625 Z M 246.796875 -154.390625 "/></g></g></g><g fill="#ffffff" fill-opacity="1"><g transform="translate(828.396999, 594.963478)"><g><path d="M 428.28125 -312.078125 C 466.644531 -312.078125 497.171875 -300.457031 519.859375 -277.21875 C 542.546875 -253.976562 553.890625 -221.703125 553.890625 -180.390625 L 553.890625 0 L 459.828125 0 L 459.828125 -167.65625 C 459.828125 -187.582031 454.566406 -202.984375 444.046875 -213.859375 C 433.535156 -224.742188 419.0625 -230.1875 400.625 -230.1875 C 382.175781 -230.1875 367.691406 -224.742188 357.171875 -213.859375 C 346.660156 -202.984375 341.40625 -187.582031 341.40625 -167.65625 L 341.40625 0 L 247.34375 0 L 247.34375 -167.65625 C 247.34375 -187.582031 242.082031 -202.984375 231.5625 -213.859375 C 221.050781 -224.742188 206.578125 -230.1875 188.140625 -230.1875 C 169.691406 -230.1875 155.207031 -224.742188 144.6875 -213.859375 C 134.175781 -202.984375 128.921875 -187.582031 128.921875 -167.65625 L 128.921875 0 L 34.3125 0 L 34.3125 -308.765625 L 128.921875 -308.765625 L 128.921875 -270.03125 C 138.515625 -282.945312 151.054688 -293.179688 166.546875 -300.734375 C 182.046875 -308.296875 199.570312 -312.078125 219.125 -312.078125 C 242.363281 -312.078125 263.113281 -307.097656 281.375 -297.140625 C 299.632812 -287.179688 313.929688 -272.976562 324.265625 -254.53125 C 334.960938 -271.5 349.53125 -285.332031 367.96875 -296.03125 C 386.414062 -306.726562 406.519531 -312.078125 428.28125 -312.078125 Z M 428.28125 -312.078125 "/></g></g></g></svg>